Coordinates
version=1
nRows=8
nColumns=33
inDegrees=yes

Units are S.I. units (second, meters, Newtons, ...)
Angles are in degrees.

endheader
time	ground_thorax_rot_x	ground_thorax_rot_y	ground_thorax_rot_z	ground_thorax_tx	ground_thorax_ty	ground_thorax_tz	clav_prot_r	clav_elev_r	scapula_abduction_r	scapula_elevation_r	scapula_upward_rot_r	scapula_winging_r	shoulder_elv_r	plane_of_elev_r	axial_rot_r	elbow_flexion_r	pro_sup_r	wrist_flex_r	wrist_dev_r	clav_prot_l	clav_elev_l	scapula_abduction_l	scapula_elevation_l	scapula_upward_rot_l	scapula_winging_l	shoulder_elv_l	plane_of_elev_l	axial_rot_l	elbow_flexion_l	pro_sup_l	wrist_flex_l	wrist_dev_l
      2.53000000	    -39.63891351	    -15.04968954	      7.90255941	   -121.91030925	    802.36424436	     -3.10767064	      2.65433571	    -45.00000000	     43.22373270	    -45.00000000	      2.48685170	  -3350.57323719	  -2454.47242375	     19.88210017	   -179.99999979	    724.75480837	    278.82354125	     16.51293982	     10.23722823	     17.69691151	     39.93086994	    -40.84297073	    -45.00000000	    -45.00000000	   2958.56531402	  -4611.69340598	     24.27742681	    -25.47662655	   1446.19030976	     17.50267076	     11.24456672	    -19.24609775
      2.54000000	    -39.62788789	    -15.52103603	      8.58047238	   -127.75559547	    803.74432774	     -3.62454504	      3.04520797	    -45.00000000	     41.67814581	    -45.00000000	     -0.77096224	  -3349.82925726	  -2454.30930792	     20.09180722	   -179.99999979	    724.63146587	    280.38842071	     16.70550347	     10.14350952	     17.45834712	     39.69775128	    -40.27959500	    -45.00000000	    -45.00000000	   2958.82231444	  -4611.52243045	     23.72967193	    -27.20017245	   1446.39248900	     17.83790356	     11.27787401	    -19.38232860
      2.55000000	    -39.63416849	    -15.95397900	      9.16242712	   -133.62309643	    805.25433069	     -4.13513871	      3.24357334	    -45.00000000	     40.36064089	    -45.00000000	     -3.89049511	  -3349.13919858	  -2454.12929446	     20.27725333	   -179.99999979	    724.49526220	    281.62282932	     16.80937769	     10.07986205	     17.32570377	     39.64941412	    -39.76254605	    -45.00000000	    -45.00000000	   2959.22182235	  -4611.43450478	     23.27925758	    -29.08393069	   1446.59357750	     18.13542689	     11.15702235	    -19.48306622
      2.56000000	    -39.65768506	    -16.14148049	      9.40932433	   -139.48616176	    806.89899825	     -4.63608783	      3.52114059	    -45.00000000	     39.48455547	    -45.00000000	     -6.07013433	  -3348.82767260	  -2453.91871195	     20.51999901	   -179.99999979	    724.41718439	    282.73010314	     16.91513838	     10.03295552	     17.28828586	     39.37769679	    -39.26929240	    -45.00000000	    -45.00000000	   2959.50788375	  -4611.24422389	     22.85774533	    -30.63537393	   1446.83390609	     18.35687968	     11.14101054	    -19.61007659
      2.57000000	    -39.68847295	    -16.30301437	      9.72646672	   -145.31894713	    808.68283632	     -5.12318125	      3.64550592	    -45.00000000	     38.59819018	    -45.00000000	     -8.10995642	  -3348.48444476	  -2453.59120718	     20.60621123	   -179.99999979	    724.28630083	    283.92322729	     17.04865656	      9.95750030	     17.01076812	     39.39132001	    -38.96058950	    -45.00000000	    -45.00000000	   2959.94011042	  -4611.24552307	     22.51326559	    -31.99523018	   1447.01072803	     18.68671769	     11.07748002	    -19.75255230
      2.58000000	    -39.75071933	    -16.42064716	      9.92395538	   -151.09698193	    810.60783371	     -5.59209717	      3.80428577	    -45.00000000	     37.93951580	    -45.00000000	     -9.78540882	  -3348.32036399	  -2453.32206099	     20.74411420	   -179.99999979	    724.27254935	    285.06558516	     17.17579297	      9.91739306	     16.90465647	     39.27203761	    -38.56906275	    -45.00000000	    -45.00000000	   2960.28769741	  -4611.10170278	     22.14640078	    -33.32384454	   1447.21324167	     19.00347658	     10.98299922	    -19.89103892
      2.59000000	    -39.81053176	    -16.37857087	      9.99223667	   -156.79732862	    812.67418364	     -6.03836152	      4.01657693	    -45.00000000	     37.37041650	    -45.00000000	    -11.14088668	  -3348.25064490	  -2453.04374058	     20.89559446	   -179.99999979	    724.23916887	    286.19499357	     17.33204014	      9.85791859	     16.75278344	     39.14368371	    -38.29859780	    -45.00000000	    -45.00000000	   2960.65772849	  -4611.01439161	     21.83349625	    -34.55829313	   1447.43621874	     19.46712736	     10.95394612	    -20.07107262
      2.60000000	    -39.87204666	    -16.36112463	     10.06015978	   -162.40076157	    814.87964665	     -6.45781278	      4.15290429	    -45.00000000	     36.91277227	    -45.00000000	    -12.39484608	  -3348.28726145	  -2452.79705930	     21.07044202	   -179.99999979	    724.18055279	    287.27518476	     17.47012781	      9.80704034	     16.67833201	     38.98563819	    -37.94725364	    -45.00000000	    -45.00000000	   2960.97950745	  -4610.86453335	     21.51450644	    -35.91599106	   1447.64783202	     20.00382986	     10.81479996	    -20.23026863
